<?xml version="1.0" encoding="UTF-8"?>
<svg viewBox="0 0 220.98589 201.16428" xmlns="http://www.w3.org/2000/svg">
 <defs>
  <filter id="h">
   <feGaussianBlur stdDeviation="2.4945"/>
  </filter>
  <filter id="a">
   <feGaussianBlur stdDeviation=".7725"/>
  </filter>
  <filter id="i">
   <feGaussianBlur stdDeviation="2.0098"/>
  </filter>
  <filter id="j" x="-.00606" y="-.64092" width="1.0121" height="2.2818">
   <feGaussianBlur stdDeviation=".4173"/>
  </filter>
  <filter id="b" x="-.32738" y="-.44639" width="1.6548" height="1.8928">
   <feGaussianBlur stdDeviation="6.2396"/>
  </filter>
  <linearGradient id="g" x1="1206" x2="1366.1" y1="-796.46" y2="-519.79" gradientTransform="matrix(.53244 .00063902 -.00063902 .53244 -1240.4 789.78)" gradientUnits="userSpaceOnUse">
   <stop stop-color="#ececec" offset="0"/>
   <stop stop-color="#fff" offset=".4072"/>
   <stop stop-color="#fff" offset=".8596"/>
   <stop stop-color="#e6e6e6" offset="1"/>
  </linearGradient>
  <linearGradient id="f" x1="-685.33" x2="-509.15" gradientUnits="userSpaceOnUse">
   <stop stop-color="#fff" offset="0"/>
   <stop stop-color="#ececec" offset="1"/>
  </linearGradient>
  <linearGradient id="e" x1="1158.5" x2="1158.8" y1="-519.96" y2="-503.07" gradientTransform="matrix(.53244 .00063902 -.00063902 .53244 -1239.5 790.94)" gradientUnits="userSpaceOnUse">
   <stop stop-color="#f9f9f9" offset="0"/>
   <stop stop-color="#ccc" offset="1"/>
  </linearGradient>
  <radialGradient id="d" cx="827.56" cy="73.756" r="72.554" gradientTransform="matrix(2.7072 -.1617 .10664 1.7855 -1440.7 87.196)" gradientUnits="userSpaceOnUse">
   <stop stop-color="#b20506" offset="0"/>
   <stop stop-color="#b20506" stop-opacity=".5565" offset="1"/>
  </radialGradient>
  <radialGradient id="c" cx="631.34" cy="137.41" r="72.554" gradientTransform="matrix(.85363 -.00532 .00496 .79447 221.36 32.232)" gradientUnits="userSpaceOnUse">
   <stop stop-color="#e04a87" offset="0"/>
   <stop stop-color="#e04a87" stop-opacity="0" offset="1"/>
  </radialGradient>
 </defs>
 <g transform="matrix(.98658 .16326 -.16326 .98658 776.52 -244.02)">
  <path d="m-596.64 362.27s-59.676 25.556-81.625 48.312c-2.8138 2.5118-3.5259 2.867-6.6562 6.625v0.75l-0.5-0.34375 0.4375 39.469-0.0625 61.594h0.78125v0.125h0.15625v0.5l173.53 0.21875v-0.90625h0.21875c5.1e-4 -0.0417-5.1e-4 -0.0833 0-0.125h0.125v-14.281c0.22228-25.193 0.22636-50.4 0-75.594v-11.281l-0.25 0.1875c-1.3505-2.7938-2.8356-5.3818-4.4062-7.125-21.163-23.488-81.75-48.125-81.75-48.125z" filter="url(#h)" opacity=".4"/>
  <path d="m-596.08 363.44s-59.676 25.556-81.625 48.312c-2.8138 2.5118-3.5259 2.867-6.6562 6.625l-0.125 101.47 174.69-0.0703c0.41316-33.594 0.41674-67.208 0.0312-100.8-1.3866-2.906-2.9372-5.6023-4.5625-7.4062-21.163-23.488-81.75-48.125-81.75-48.125z" fill="url(#g)" stroke="#ececec"/>
  <path d="m-679.92 417.41v1l165.34 0.5625v-1l-165.34-0.5625z" fill="#e3dbdb" filter="url(#j)" opacity=".5"/>
  <g transform="matrix(-.73482 -.11328 -.11328 .73482 -4.0586 481.26)">
   <path d="m758.21 146.92s-47.69-89.221-26.966-127.34c8.494-15.623 32.481-24.583 49.812-19.101 21.792 6.8931 27.34 31.086 27.34 31.086s19.798-15.827 45.692 0.37453c17.645 11.04 20.279 33.818 13.858 49.812-15.85 39.48-109.74 65.168-109.74 65.168z" fill="url(#d)"/>
   <path d="m768.2 0.88665c-18.189 0.73615-37.186 12.832-39.312 32.094-3.5013 26.425 5.7672 52.666 14.807 77.054 4.6226 11.733 9.8022 23.292 15.537 34.508 32.19-10.062 64.93-22.006 91.375-43.625 12.263-9.7265 20.728-25.364 18.188-41.438-1.2638-14.876-12.69-27.139-26.938-31.062-11.699-3.811-25.307-1.4288-34.75 6.625-3.3631-18.374-18.907-35.729-38.906-34.156z" fill="url(#c)"/>
   <path transform="matrix(.80338 .22325 -.22325 .80338 256.9 -127.89)" d="m665.78 12.447c0 8.922-10.434 16.155-23.305 16.155s-23.305-7.2327-23.305-16.155 10.434-16.155 23.305-16.155 23.305 7.2327 23.305 16.155z" fill="#fff" filter="url(#b)" opacity=".3"/>
   <path transform="matrix(.80338 .22325 -.22325 .80338 324.11 -102.18)" d="m665.78 12.447c0 8.922-10.434 16.155-23.305 16.155s-23.305-7.2327-23.305-16.155 10.434-16.155 23.305-16.155 23.305 7.2327 23.305 16.155z" fill="#fff" filter="url(#b)" opacity=".3"/>
  </g>
  <path transform="matrix(.62298 -.40582 .40582 .62298 -1025.3 665.84)" d="m659.42 28.289s-4.226-10.452-7.4905-14.981c-3.097-4.2968-11.236-11.236-11.236-11.236s-4.3773-1.5564-5.9924-0.37453c-1.2462 0.91188-1.1236 4.4943-1.1236 4.4943s9.6982 5.1096 13.858 8.6141c4.5985 3.8746 11.985 13.483 11.985 13.483z" fill="#fff" filter="url(#a)" opacity=".7"/>
  <path transform="matrix(.46548 -.57976 .57976 .46548 -894.93 820.59)" d="m701.54-32.839s10.323 4.2689 15.095 9.5339c10.489 11.572 8.4746 30.705 8.4746 30.705s-5.1512-17.725-9.9805-25.454c-3.5471-5.6768-13.589-14.785-13.589-14.785z" fill="#fff" filter="url(#a)" opacity=".7"/>
  <path d="m-682.52 418.76 70.724 50.552 31.868 0.28084 66.81-51.114v98.296l-168.28 0.28084z" filter="url(#i)" opacity=".3"/>
  <path d="m-684.83 418.77 73.137 52.035 32.955 0.28908 69.09-52.613v101.18l-174.03 0.28908z" fill="url(#f)" stroke="#e6e6e6"/>
  <path d="m-613.08 469.94c-19.366 9.2489-50.33 25.399-64.875 40.406-1.8992 1.9596-3.8345 4.9439-5.5938 8.125v2l173.53 0.21875v-2.7188c-1.3796-2.9093-2.9415-5.6297-4.5625-7.4375-13.881-15.481-44.729-31.447-64.281-40.594h-34.219z" fill="url(#e)" stroke="#ccc" stroke-width=".53244"/>
 </g>
</svg>
